<svg xmlns="http://www.w3.org/2000/svg" viewBox="0 0 729.48 177.58"><defs><style>.cls-1{fill:#fff;}.cls-2{fill:#fcb319;}</style></defs><title>td-logo-white</title><g id="Layer_2" data-name="Layer 2"><g id="Layer_1-2" data-name="Layer 1"><path class="cls-1" d="M195.9,60.77a3,3,0,0,0-3.21-3.21c-9.3,0-16.89,3.53-23.19,13.79L166.4,70,174,49.22h3.63a3.25,3.25,0,0,0,3.31,2.35h45.22a3.15,3.15,0,0,0,3.32-2.35h3.63L240.59,70l-3.1,1.39c-6.2-10.26-14.44-13.79-23.63-13.79a3,3,0,0,0-3.21,3.21v53.66c0,7.16,1.71,7.8,9.41,8.34v3.63H186.49v-3.63c7.7-.54,9.41-1.18,9.41-8.34Z"/><path class="cls-1" d="M274.58,126.4v-3.63c5.34-.54,6.63-1.6,6.63-5V91.34c0-5.67-3.21-8-7.7-8a21.44,21.44,0,0,0-11.76,3.85v30.58c0,3.42,1.28,4.48,6.63,5v3.63H242.3v-3.63c5.34-.54,6.52-1.6,6.52-5V65.15c0-2.46-.86-3.31-3-3.31H242.3V58.63L257.16,50h4.59V81.29c4.17-2.67,10.59-5.24,16.36-5.24,7.05,0,16,2.57,16,15.5v26.2c0,3.42,1.18,4.48,6.52,5v3.63Z"/><path class="cls-1" d="M305.58,126.4v-3.63c5.35-.54,6.52-1.6,6.52-5V91.23c0-2.46-.85-3.31-3-3.31h-3.53V84.71l14.86-8.66H325v41.7c0,3.42,1.28,4.48,6.63,5v3.63Zm13.26-74.29a7.63,7.63,0,0,1,7.91,7.59,7.52,7.52,0,0,1-7.91,7.37A7.43,7.43,0,0,1,311,59.7,7.53,7.53,0,0,1,318.84,52.11Z"/><path class="cls-1" d="M368.76,126.4v-3.63c5.34-.54,6.63-1.6,6.63-5V91.34c0-5.67-3.21-8-7.7-8a21.44,21.44,0,0,0-11.76,3.85v30.58c0,3.42,1.28,4.48,6.63,5v3.63H336.47v-3.63c5.35-.54,6.53-1.6,6.53-5V91.23c0-2.46-.86-3.31-3-3.31h-3.53V84.71l14.86-8.66h4.6v5.24c4.17-2.67,10.58-5.24,16.36-5.24,7,0,16,2.57,16,15.5v26.2c0,3.42,1.18,4.48,6.52,5v3.63Z"/><path class="cls-1" d="M399.76,126.4v-3.63c5.35-.54,6.52-1.6,6.52-5V65.15c0-2.46-.85-3.31-3-3.31h-3.53V58.63L414.62,50h4.6v50.67l12.18-12c3.42-3.42,4.07-7-3.95-7.49V77.66H454v3.52c-5.77.54-8.45,1.93-13.58,6.85l-6,6,16.67,22.45c3.64,4.92,5.56,5.77,8.66,6.31v3.63H431v-3.63c6.3-.54,6.84-3.42,4.59-6.52L425.2,102.89l-6,5.77v9.09c0,3.42,1.28,4.48,6.62,5v3.63Z"/><g id="XIEtsN"><path class="cls-1" d="M98.58,78.83a14.52,14.52,0,0,1-3.37.35c-3.33-.43-6,.17-7.83,3.2a7.22,7.22,0,0,1-2.55,2.92c-6.54,3.18-6.9,8.33-6.81,16.38.06,5.65.22,36.15,3.68,40.82,2,2.65,1.31,4.65-2,4.87-5.87.39-8.69.06-14.58-.25-5.25,0-5.24-4.12-4.61-6.25,1.05-3.54,1.29-20.79,2-24.42,1.35-6.61.86-21.92-4.37-25.5a9.79,9.79,0,0,1-1.78-2.14l.34-.39,2.88,1.16c0-.41.16-.63.08-.77-2.61-5-14.26-11.36-19.94-10.14-3.34.72-5.83-.11-8.65-1.28-1.76-.73-3.69-1.3-5.17,1.25-.79,1.37-3,2-4.59,2.92l-.73-.81-2.51,5.42H10.88c-1.38-1.35-2.12-2.61-3.21-3C4.73,82,3.05,78.84,4.21,76.32l-2.93-3.4,6.23-3.21L6.67,67l2.84-3L9,63,3.06,64.3c-.27-2-1.16-3.78,0-5.9,1-1.78.93-3.68-1.38-5.22C-.21,51.94-.54,47.67.87,46.7,3,45.2,5.46,44,7.55,42.85c-4.76-2.84-5-3.75-.64-6,2.44-1.25,2.37-2.52,2-4.53-.16-.75.15-2.22.59-2.36a14.71,14.71,0,0,1,5.12-.8c2.56.12,3.6-.88,2.81-3.15-.25-.7-.61-1.65-.32-2.19,1.11-2,2.47-4,3.73-5.91,3.71,3,5.53-.92,8.14-2.22L28,13.88l4.73-1.12a8.61,8.61,0,0,1,2.32-2.7,8.3,8.3,0,0,0,1.71-2.22,15.49,15.49,0,0,0,.73-2.95c.86.52,1.39.8,1.86,1.14,3.49,2.57,4.39,2.3,5.89-1.55C45.52,3.84,46.65,2.89,47,3c4.2,1.44,8.41-1.48,12.56.09a1,1,0,0,0,.6-.1C62,2.32,63-1.76,65.69,2c0,0,.18,0,.23,0L67.53,0c-.06,3.05,2.7,1.67,3.77,2.56,2.14,1.79,3.69,1.89,6-.11,3.35-2.86,5.31-2,7,2.23.38,1,.73,2,1.09,3,.58-.12,1.13-.07,1.34-.31,2.75-2.92,6.36-1.41,9.6-1.71.67-.06,2.05.66,2,.94a19.34,19.34,0,0,1-1,3.71,2.23,2.23,0,0,0,.46.57c2.14,1.52,3.38,2.92-.21,4.25-.5.18-.66,1.22-1.17,2.25l5.32.24.91-2.68c2.88,1.82,10.52-.76,6.36,6.83l2.87-.37V25l2.38-2.14,1,1.75,2.44-.69a19.88,19.88,0,0,1,.19,2.42c-.07,1.95-.22,3.91-.38,6.53l3.22-1.92,2.5,3.43,4.21.19c-1.11,1.95-1.9,3.29-2.64,4.65-.39.72-.68,1.48-1,2.22.74.09,1.48.26,2.23.28,1.94,0,3.6,1.66,2.69,2.82a17.37,17.37,0,0,1-3.93,3.39,14.52,14.52,0,0,1-3.16,1.18l.27.88,7.13-1.1v2.92a23.81,23.81,0,0,1,3.6,1.06,11.35,11.35,0,0,1,2.18,1.77c-.58.61-1.13,1.24-1.74,1.81s-1.45.79-1.51,1.26c-.36,2.87-2.22,4.11-5.25,4.33l2.21,2.79-5.73,2.55L130.61,71c-2.18,2.09-3.75,3.51-5.22,5a4.35,4.35,0,0,0-1,1.93c-.4,1.7-.85,2.91-3.09,1.75A39.54,39.54,0,0,0,116.91,78l-.85,4.13-1-.11-1.62-2.62c-.61,2.85-1.46,4.79-5,4.07.69-4.89-2.59-7-6.76-8-1.44-.32-3.27.93-5.69,1.71l2.59.93ZM68.24,73.16c-.25-1.4-3.82-2.24-5.89-3.34l-1.1,1L64.37,81l2,.21C67.13,78.47,68.68,75.65,68.24,73.16Zm21.32-.69C84,74,78.1,80.75,77.67,86,82.83,80.19,86.88,78.18,89.56,72.47ZM78.28,77.2l6.6-5.55C80.17,69.46,78.92,72.79,78.28,77.2Zm-18-1.58c-.46-2.75-1.46-4.73-4.31-3.15C57.51,73.21,58.7,74.88,60.26,75.62ZM49.73,77.13l8.73,4.09C56.53,78.1,54.89,74.4,49.73,77.13Z"/></g><g id="Dgscrh"><path class="cls-2" d="M101,132c.77-.66,1.44-1.22,2.08-1.81.15-.13.31-.45.25-.6-.39-.94.33-1.3.88-1.76,1.18-1,2.34-2,3.55-3,.52-.41.73-.78.38-1.45-.65-1.27-1.21-2.58-1.8-3.86a3.09,3.09,0,0,0-2.73,1c-1.26,1.08-2.59,2.08-3.9,3.09-.91.7-2,1.29-1.51,3l-1.07-.86-2.28,3.76-1.78-5.13c1-1.06,2-2,3-3.11.17-.19,0-.67,0-1a4.45,4.45,0,0,1,.54-2,2.61,2.61,0,0,0-.37-3.92,37.8,37.8,0,0,0-5.06-2.51c-1.06-.44-3.1.63-3.71,1.82-1,1.88-1.74,3.8-.81,6,.33.76,0,1.18-.7,1.66a49.54,49.54,0,0,0-4.37,3.43,2.3,2.3,0,0,0-.49,1.12,51.57,51.57,0,0,0-1.3,14c0,.79,0,1.52,1,2,.49.26.69,1.17.9,1.82a4.1,4.1,0,0,0,3.5,2.94,24.23,24.23,0,0,0,8.28-.17,1.76,1.76,0,0,0,.85-.32c2.06-1.79,4.09-3.62,6.15-5.42.27-.23.73-.52,1-.44,2.44.8,4.89,1.61,7.3,2.52s4.54,1.86,6.81,2.8a.47.47,0,0,0,.22.07,8,8,0,0,1,3.92.54.85.85,0,0,0,.74-.4c.54-1.55,2.08-2.31,2.83-3.67a8.92,8.92,0,0,0,1.15-2.69c.17-1.14-.5-1.44-1.49-.84a.86.86,0,0,0-.2.13c-1.8,2-3.61,1.46-5.75.37-4.53-2.31-9.21-4.35-13.84-6.47A18.77,18.77,0,0,0,101,132Z"/></g><path class="cls-1" d="M513.65,125.76H479v-3.63c7.7-.54,9.41-1.18,9.41-8.34V62.9c0-7.16-1.71-7.91-9.41-8.44V50.93h34.74c25.76,0,40.73,13,40.73,37.42S539.31,125.76,513.65,125.76Zm.11-68.84h-7.38a3,3,0,0,0-3.2,3.2v56.34a3,3,0,0,0,3.2,3.21h7.27c14.54,0,24.81-7.16,24.81-31.32S528.41,56.92,513.76,56.92Z"/><path class="cls-1" d="M593.51,120.31c-4.71,3.42-10.8,6.84-17.43,6.84-8.76,0-14.43-4.49-14.43-11.86,0-12.08,14.86-16.25,31.64-19.14V90.48c0-7.26-1.39-9.83-6.62-9.83s-8.13,2.25-9.62,7.48c-1.18,4-3.75,5.78-6.85,5.78s-5.13-1.93-5.13-5.78c0-7,9.09-12.72,22.67-12.72,9.94,0,18.49,3.64,18.49,15.61v24.91c0,3.31,1.07,4.91,3.21,4.91a7.73,7.73,0,0,0,3.53-1.06v4.7a16.32,16.32,0,0,1-9.63,2.57C598.32,127.05,594.58,125.23,593.51,120.31Zm-.22-5.13V101.39c-10.9,1.82-18.06,4.49-18.06,11.55,0,4.59,3,6.52,6.73,6.52C586,119.46,589.77,117.64,593.29,115.18Z"/><path class="cls-1" d="M617.88,125.76v-3.63c5.35-.54,6.52-1.61,6.52-5V90.59c0-2.46-.85-3.31-3-3.31h-3.53V84.07l14.86-8.66h4.6V117.1c0,3.42,1.28,4.49,6.63,5v3.63Zm13.26-74.29a7.63,7.63,0,0,1,7.91,7.59,7.52,7.52,0,0,1-7.91,7.37,7.43,7.43,0,0,1-7.81-7.37A7.53,7.53,0,0,1,631.14,51.47Z"/><path class="cls-1" d="M648.77,125.76v-3.63c5.35-.54,6.53-1.61,6.53-5V64.51c0-2.46-.86-3.32-3-3.32h-3.53V58l14.86-8.66h4.6V117.1c0,3.42,1.28,4.49,6.63,5v3.63Z"/><path class="cls-1" d="M703,134.85c-3.21,8-8.66,12.19-15.82,12.19-5.88,0-10.9-3.1-10.9-7.91a6,6,0,0,1,6.2-6.1c5,0,5.56,5.13,9.3,5.13,2.56,0,4.49-2.46,5.88-6l1.81-4.49L684.16,89c-2.14-5.56-3.1-7.91-7.81-8.45V77H703v3.52c-6.52.54-7.05,2.36-4.7,8.45l8.23,21.38L715.05,89c2.46-6.09.54-7.91-5-8.45V77h19.45v3.52c-4,.54-5.66,2.68-7.91,8.45Z"/><path class="cls-1" d="M419.59,173.14a6.65,6.65,0,0,1-5.7-3.31v3h-1.33V153h1.33v9.06a6.69,6.69,0,0,1,5.7-3.41,6.86,6.86,0,0,1,6.72,7.18v.06A6.92,6.92,0,0,1,419.59,173.14Zm5.29-7.24c0-3.64-2.53-6-5.43-6a5.79,5.79,0,0,0-5.64,5.94v.06a5.77,5.77,0,0,0,5.64,5.94c3,0,5.43-2.2,5.43-5.92Z"/><path class="cls-1" d="M436.08,173.3c-1.22,2.91-2.64,3.94-4.62,3.94a6.16,6.16,0,0,1-2.73-.6l.46-1.16a4.82,4.82,0,0,0,2.36.51c1.43,0,2.38-.84,3.41-3.26L428.32,159h1.54l5.76,12.37,5-12.37h1.46Z"/><path class="cls-1" d="M455.79,152.35h3.6v17.19h10.76v3.28H455.79Z"/><path class="cls-1" d="M482.93,172.82v-1.9a6.25,6.25,0,0,1-5,2.22c-2.92,0-5.5-1.67-5.5-4.77v-.06c0-3.33,2.67-5,6.26-5A13,13,0,0,1,483,164v-.38c0-2.14-1.34-3.31-3.8-3.31a10.7,10.7,0,0,0-4.42,1l-1-2.84a13.25,13.25,0,0,1,5.88-1.29c4.56,0,6.78,2.4,6.78,6.52v9.16Zm.09-6.55a10.12,10.12,0,0,0-3.54-.62c-2.22,0-3.54.91-3.54,2.49v.06c0,1.46,1.32,2.28,3,2.28,2.34,0,4.09-1.32,4.09-3.25Z"/><path class="cls-1" d="M494.2,172.82h-3.54V157.38h3.54v3.48c1-2.31,2.74-3.89,5.46-3.78v3.75h-.2c-3.1,0-5.26,2-5.26,6.11Z"/><path class="cls-1" d="M506.28,172.82h-3.54V157.38h3.54v3.48c1-2.31,2.74-3.89,5.46-3.78v3.75h-.2c-3.1,0-5.26,2-5.26,6.11Z"/><path class="cls-1" d="M523.06,173.26c-1.22,3.15-2.6,4.32-5.08,4.32a7.25,7.25,0,0,1-3.66-.93l1.2-2.63a4.34,4.34,0,0,0,2.08.58c1,0,1.6-.44,2.19-1.78l-6.44-15.44h3.78l4.38,11.46,4-11.46h3.69Z"/><path class="cls-1" d="M546,173.11a7.7,7.7,0,0,1-6.55-3.3l2.36-2.43c1.2,1.52,2.4,2.4,4.13,2.4,1.93,0,3.24-1.29,3.24-4V152.35h3.69v13.51C552.84,170.71,550,173.11,546,173.11Z"/><path class="cls-1" d="M566.82,172.82v-1.9a6.25,6.25,0,0,1-5,2.22c-2.93,0-5.5-1.67-5.5-4.77v-.06c0-3.33,2.66-5,6.26-5a13,13,0,0,1,4.27.65v-.38c0-2.14-1.35-3.31-3.8-3.31a10.66,10.66,0,0,0-4.42,1l-1-2.84a13.2,13.2,0,0,1,5.87-1.29c4.57,0,6.79,2.4,6.79,6.52v9.16Zm.09-6.55a10.16,10.16,0,0,0-3.54-.62c-2.22,0-3.54.91-3.54,2.49v.06c0,1.46,1.32,2.28,3,2.28,2.34,0,4.1-1.32,4.1-3.25Z"/><path class="cls-1" d="M578.08,172.82h-3.54V157.38h3.54v2.39a5.57,5.57,0,0,1,4.83-2.72c3.48,0,5.5,2.34,5.5,5.94v9.83h-3.54V164c0-2.39-1.2-3.77-3.31-3.77s-3.48,1.43-3.48,3.83Z"/><path class="cls-1" d="M599.81,170.27a5.58,5.58,0,0,0,4.18-1.84l2.08,1.84a7.8,7.8,0,0,1-6.32,2.9,7.71,7.71,0,0,1-7.92-8c0-4.45,3.13-8.08,7.54-8.08,4.92,0,7.4,3.86,7.4,8.34,0,.32,0,.61-.06,1H595.37A4.32,4.32,0,0,0,599.81,170.27Zm3.45-6.26c-.23-2.28-1.58-4.06-3.91-4.06-2.17,0-3.69,1.67-4,4.06Z"/><path class="cls-1" d="M615.64,173.11a10.83,10.83,0,0,1-6.55-2.31l1.58-2.4a8.63,8.63,0,0,0,5.05,1.9c1.53,0,2.4-.64,2.4-1.66v-.06c0-1.2-1.64-1.61-3.45-2.17-2.28-.64-4.82-1.58-4.82-4.53v-.06c0-2.92,2.42-4.71,5.49-4.71a10.76,10.76,0,0,1,5.68,1.76l-1.41,2.51a9,9,0,0,0-4.35-1.46c-1.38,0-2.17.64-2.17,1.55v.06c0,1.11,1.67,1.58,3.48,2.16,2.25.7,4.8,1.73,4.8,4.51v.06C621.37,171.5,618.85,173.11,615.64,173.11Z"/><path class="cls-1" d="M639.42,172.82h-4.1l-4.65-6.67-2.16,2.25v4.42H625V151.47h3.54v12.75l6.4-6.84h4.3l-6.14,6.28Z"/><path class="cls-1" d="M649.8,173.26c-1.23,3.15-2.6,4.32-5.09,4.32a7.24,7.24,0,0,1-3.65-.93l1.2-2.63a4.33,4.33,0,0,0,2.07.58c1,0,1.61-.44,2.2-1.78l-6.44-15.44h3.77l4.39,11.46,4-11.46h3.68Z"/></g></g></svg>